<svg id="Layer_1" data-name="Layer 1" xmlns="http://www.w3.org/2000/svg" xmlns:xlink="http://www.w3.org/1999/xlink" width="779.57" height="614.61" viewBox="0 0 779.57 614.61">
  <defs>
    <style>
      .cls-1, .cls-4 {
        fill: none;
      }

      .cls-2 {
        fill: #eaeaea;
        stroke: #00202c;
        stroke-width: 4px;
      }

      .cls-2, .cls-4 {
        stroke-miterlimit: 10;
      }

      .cls-3 {
        fill: #253746;
      }

      .cls-4 {
        stroke: #97ca38;
        stroke-width: 2px;
      }

      .cls-5 {
        clip-path: url(#clip-path);
      }

      .cls-6 {
        fill: #007eb1;
      }

      .cls-7 {
        clip-path: url(#clip-path-3);
      }

      .cls-8 {
        clip-path: url(#clip-path-5);
      }

      .cls-9 {
        clip-path: url(#clip-path-7);
      }

      .cls-10 {
        clip-path: url(#clip-path-9);
      }

      .cls-11 {
        clip-path: url(#clip-path-11);
      }

      .cls-12 {
        clip-path: url(#clip-path-13);
      }

      .cls-13 {
        fill: #1c3747;
      }
    </style>
    <clipPath id="clip-path" transform="translate(-281.11 -89.18)">
      <rect class="cls-1" x="903.74" y="485.19" width="139.36" height="120.78"/>
    </clipPath>
    <clipPath id="clip-path-3" transform="translate(-281.11 -89.18)">
      <rect class="cls-1" x="810.39" y="350.69" width="139.36" height="120.78"/>
    </clipPath>
    <clipPath id="clip-path-5" transform="translate(-281.11 -89.18)">
      <rect class="cls-1" x="717.04" y="485.19" width="139.36" height="120.78"/>
    </clipPath>
    <clipPath id="clip-path-7" transform="translate(-281.11 -89.18)">
      <rect class="cls-1" x="485.39" y="485.19" width="139.36" height="120.78"/>
    </clipPath>
    <clipPath id="clip-path-9" transform="translate(-281.11 -89.18)">
      <rect class="cls-1" x="392.04" y="350.69" width="139.36" height="120.78"/>
    </clipPath>
    <clipPath id="clip-path-11" transform="translate(-281.11 -89.18)">
      <rect class="cls-1" x="298.69" y="485.19" width="139.36" height="120.78"/>
    </clipPath>
    <clipPath id="clip-path-13" transform="translate(-281.11 -89.18)">
      <rect class="cls-1" x="567.14" y="89.18" width="205.79" height="112.77"/>
    </clipPath>
  </defs>
  <rect class="cls-2" x="420.35" y="193.53" width="357.23" height="419.08" rx="2"/>
  <g>
    <path class="cls-3" d="M779.35,635.52h5.72l13.14,35.07h.12l13.56-35.07h5.37l-16.7,42.67h-4.88Z" transform="translate(-281.11 -89.18)"/>
    <path class="cls-3" d="M823.22,635.52h5.07v38h19.52v4.7H823.22Z" transform="translate(-281.11 -89.18)"/>
    <path class="cls-3" d="M870.83,635.52h4.76l18.15,42.67h-5.91l-4.34-10.49H862.16l-4.4,10.49H852Zm2.29,6.51H873l-8.86,21h17.42Z" transform="translate(-281.11 -89.18)"/>
    <path class="cls-3" d="M899.4,635.52h6.39L930.5,671h.12V635.52h5.06v42.67h-6.39l-24.71-35.44h-.12v35.44H899.4Z" transform="translate(-281.11 -89.18)"/>
    <path class="cls-3" d="M960.75,672.4l16.09-15.67c1-1,1.89-1.85,2.66-2.68a17.38,17.38,0,0,0,1.89-2.41,8.93,8.93,0,0,0,1.12-2.44,10.33,10.33,0,0,0,.36-2.83,7.27,7.27,0,0,0-.6-3,6.8,6.8,0,0,0-1.66-2.26,7.58,7.58,0,0,0-2.47-1.44,8.9,8.9,0,0,0-3-.51,7.83,7.83,0,0,0-5.37,1.86,8.65,8.65,0,0,0-2.71,5l-5.48-.49a13.46,13.46,0,0,1,1.59-4.61,11.1,11.1,0,0,1,3-3.34,13,13,0,0,1,4-2,17.14,17.14,0,0,1,9.83.06,12.69,12.69,0,0,1,4.13,2.2,10.6,10.6,0,0,1,2.83,3.62,11.32,11.32,0,0,1,1,5,14.34,14.34,0,0,1-.69,4.58,15,15,0,0,1-1.87,3.76,25.52,25.52,0,0,1-2.65,3.26c-1,1-2,2-3.1,3l-13.14,12.36v.12h21.75v4.7H960.75Z" transform="translate(-281.11 -89.18)"/>
  </g>
  <rect class="cls-2" x="2" y="193.53" width="357.23" height="419.08" rx="2"/>
  <g>
    <path class="cls-3" d="M361,635.52h5.73l13.14,35.07H380l13.56-35.07h5.36l-16.69,42.67h-4.88Z" transform="translate(-281.11 -89.18)"/>
    <path class="cls-3" d="M404.88,635.52h5.06v38h19.53v4.7H404.88Z" transform="translate(-281.11 -89.18)"/>
    <path class="cls-3" d="M452.49,635.52h4.76l18.14,42.67h-5.91l-4.34-10.49H443.81l-4.4,10.49h-5.73Zm2.29,6.51h-.12l-8.86,21h17.42Z" transform="translate(-281.11 -89.18)"/>
    <path class="cls-3" d="M481.05,635.52h6.39L512.15,671h.12V635.52h5.06v42.67H511l-24.71-35.44h-.12v35.44h-5.07Z" transform="translate(-281.11 -89.18)"/>
    <path class="cls-3" d="M561.09,678.19H556V642h-.12l-7.66,6.45-3-3.68,11.45-9.28h4.4Z" transform="translate(-281.11 -89.18)"/>
  </g>
  <line class="cls-4" x1="596.96" y1="264.82" x2="390.45" y2="96.21"/>
  <line class="cls-4" x1="182.61" y1="264.82" x2="389.44" y2="96.21"/>
  <g id="Desktop_Monitor" data-name="Desktop Monitor">
    <g class="cls-5">
      <g class="cls-5">
        <path class="cls-6" d="M1036.64,485.19H910.2a6.46,6.46,0,0,0-6.46,6.46V574a6.46,6.46,0,0,0,6.46,6.46h126.44a6.46,6.46,0,0,0,6.46-6.46V491.65a6.46,6.46,0,0,0-6.46-6.46m-64.28,91.63a3.3,3.3,0,1,1,3.3-3.3,3.3,3.3,0,0,1-3.3,3.3m63.77-14.48a5.65,5.65,0,0,1-5.44,5.31h-116c-2.8,0-4-2.57-4-5.31V496.86c0-2.74,1.19-4.7,4-4.7h116c2.8,0,5.44,2,5.44,4.7Zm-35,36.66h-9.51a3.33,3.33,0,0,1-3.14-3.45l-2.23-8.29a3.4,3.4,0,0,0-3.6-3.36H962.78a3.45,3.45,0,0,0-3.61,3.41L957,595.65a3.23,3.23,0,0,1-3.13,3.35h-9a3.49,3.49,0,0,0,0,7h56.31a3.49,3.49,0,0,0,0-7" transform="translate(-281.11 -89.18)"/>
      </g>
    </g>
  </g>
  <g id="Desktop_Monitor-2" data-name="Desktop Monitor">
    <g class="cls-7">
      <g class="cls-7">
        <path class="cls-6" d="M943.29,350.69H816.85a6.46,6.46,0,0,0-6.46,6.46v82.31a6.46,6.46,0,0,0,6.46,6.46H943.29a6.47,6.47,0,0,0,6.46-6.46V357.15a6.46,6.46,0,0,0-6.46-6.46M879,442.32a3.3,3.3,0,1,1,3.3-3.3,3.3,3.3,0,0,1-3.3,3.3m63.77-14.48a5.64,5.64,0,0,1-5.44,5.3h-116c-2.8,0-4-2.56-4-5.3V362.35c0-2.73,1.19-4.69,4-4.69h116c2.8,0,5.44,2,5.44,4.69Zm-35,36.66h-9.51a3.33,3.33,0,0,1-3.14-3.45l-2.23-8.29a3.4,3.4,0,0,0-3.6-3.36H869.43a3.45,3.45,0,0,0-3.61,3.41l-2.22,8.34a3.24,3.24,0,0,1-3.13,3.35h-9a3.49,3.49,0,0,0,0,7h56.31a3.49,3.49,0,0,0,0-7" transform="translate(-281.11 -89.18)"/>
      </g>
    </g>
  </g>
  <g id="Desktop_Monitor-3" data-name="Desktop Monitor">
    <g class="cls-8">
      <g class="cls-8">
        <path class="cls-6" d="M849.94,485.19H723.5a6.46,6.46,0,0,0-6.46,6.46V574a6.46,6.46,0,0,0,6.46,6.46H849.94A6.46,6.46,0,0,0,856.4,574V491.65a6.46,6.46,0,0,0-6.46-6.46m-64.28,91.63a3.3,3.3,0,1,1,3.3-3.3,3.3,3.3,0,0,1-3.3,3.3m63.77-14.48a5.65,5.65,0,0,1-5.44,5.31H728c-2.8,0-4-2.57-4-5.31V496.86c0-2.74,1.19-4.7,4-4.7H844c2.8,0,5.44,2,5.44,4.7Zm-35,36.66h-9.51a3.33,3.33,0,0,1-3.14-3.45l-2.23-8.29a3.4,3.4,0,0,0-3.6-3.36H776.08a3.45,3.45,0,0,0-3.61,3.41l-2.22,8.34a3.23,3.23,0,0,1-3.13,3.35h-9a3.49,3.49,0,0,0,0,7h56.31a3.49,3.49,0,0,0,0-7" transform="translate(-281.11 -89.18)"/>
      </g>
    </g>
  </g>
  <g id="Desktop_Monitor-4" data-name="Desktop Monitor">
    <g class="cls-9">
      <g class="cls-9">
        <path class="cls-6" d="M618.29,485.19H491.85a6.46,6.46,0,0,0-6.46,6.46V574a6.46,6.46,0,0,0,6.46,6.46H618.29a6.46,6.46,0,0,0,6.46-6.46V491.65a6.46,6.46,0,0,0-6.46-6.46M554,576.82a3.3,3.3,0,1,1,3.29-3.3,3.3,3.3,0,0,1-3.29,3.3m63.76-14.48a5.65,5.65,0,0,1-5.43,5.31h-116c-2.79,0-4-2.57-4-5.31V496.86c0-2.74,1.2-4.7,4-4.7h116c2.79,0,5.43,2,5.43,4.7ZM582.8,599h-9.52a3.33,3.33,0,0,1-3.14-3.45l-2.22-8.29a3.41,3.41,0,0,0-3.61-3.36H544.43a3.45,3.45,0,0,0-3.61,3.41l-2.21,8.34a3.24,3.24,0,0,1-3.14,3.35h-9a3.49,3.49,0,0,0,0,7H582.8a3.49,3.49,0,0,0,0-7" transform="translate(-281.11 -89.18)"/>
      </g>
    </g>
  </g>
  <g id="Desktop_Monitor-5" data-name="Desktop Monitor">
    <g class="cls-10">
      <g class="cls-10">
        <path class="cls-6" d="M524.94,350.69H398.5a6.46,6.46,0,0,0-6.46,6.46v82.31a6.46,6.46,0,0,0,6.46,6.46H524.94a6.46,6.46,0,0,0,6.46-6.46V357.15a6.46,6.46,0,0,0-6.46-6.46m-64.27,91.63A3.3,3.3,0,1,1,464,439a3.3,3.3,0,0,1-3.29,3.3m63.76-14.48a5.64,5.64,0,0,1-5.43,5.3H403c-2.79,0-4-2.56-4-5.3V362.35c0-2.73,1.2-4.69,4-4.69H519c2.79,0,5.43,2,5.43,4.69Zm-35,36.66h-9.52a3.33,3.33,0,0,1-3.14-3.45l-2.22-8.29A3.41,3.41,0,0,0,471,449.4H451.08a3.45,3.45,0,0,0-3.61,3.41l-2.21,8.34a3.25,3.25,0,0,1-3.14,3.35h-9a3.49,3.49,0,0,0,0,7h56.31a3.49,3.49,0,0,0,0-7" transform="translate(-281.11 -89.18)"/>
      </g>
    </g>
  </g>
  <g id="Desktop_Monitor-6" data-name="Desktop Monitor">
    <g class="cls-11">
      <g class="cls-11">
        <path class="cls-6" d="M431.59,485.19H305.15a6.46,6.46,0,0,0-6.46,6.46V574a6.46,6.46,0,0,0,6.46,6.46H431.59a6.46,6.46,0,0,0,6.46-6.46V491.65a6.46,6.46,0,0,0-6.46-6.46m-64.27,91.63a3.3,3.3,0,1,1,3.29-3.3,3.3,3.3,0,0,1-3.29,3.3m63.76-14.48a5.65,5.65,0,0,1-5.43,5.31h-116c-2.8,0-4-2.57-4-5.31V496.86c0-2.74,1.19-4.7,4-4.7h116c2.79,0,5.43,2,5.43,4.7ZM396.1,599h-9.52a3.33,3.33,0,0,1-3.14-3.45l-2.22-8.29a3.41,3.41,0,0,0-3.61-3.36H357.73a3.45,3.45,0,0,0-3.61,3.41l-2.21,8.34a3.24,3.24,0,0,1-3.14,3.35h-9a3.49,3.49,0,0,0,0,7H396.1a3.49,3.49,0,0,0,0-7" transform="translate(-281.11 -89.18)"/>
      </g>
    </g>
  </g>
  <g id="Network_Switch" data-name="Network Switch">
    <g class="cls-12">
      <g class="cls-12">
        <path class="cls-13" d="M769.18,133.25H624.72V106.67a9.57,9.57,0,1,0-10.63,0v26.58H570.87a3.75,3.75,0,0,0-3.73,3.74v57a3.75,3.75,0,0,0,3.73,3.74H574v1a3.18,3.18,0,0,0,3.16,3.19h4.28a3.21,3.21,0,0,0,3.19-3.19v-1H754.33v1a3.18,3.18,0,0,0,3.16,3.19h4.29a3.21,3.21,0,0,0,3.19-3.19v-1h4.21a3.75,3.75,0,0,0,3.74-3.74V137a3.75,3.75,0,0,0-3.74-3.74M615,171H576.67a3.14,3.14,0,0,1-3.15-3.15,3.17,3.17,0,0,1,3.15-3.19H615a3.2,3.2,0,0,1,3.16,3.19A3.16,3.16,0,0,1,615,171m65.82-1.6h-1.59v3h-4v1.21h-11.9v-1.21h-4v-3H657.8V158.56h23Zm27.33,0h-1.58v3h-4v1.21H690.69v-1.21h-4v-3h-1.59V158.56h23Zm27.34,0h-1.59v3h-4v1.21H718v-1.21h-4v-3h-1.58V158.56h23Zm27.33,0h-1.59v3h-4v1.21h-11.9v-1.21h-4v-3H739.8V158.56h23Z" transform="translate(-281.11 -89.18)"/>
      </g>
    </g>
  </g>
</svg>
