<svg id="Layer_1" data-name="Layer 1" xmlns="http://www.w3.org/2000/svg" xmlns:xlink="http://www.w3.org/1999/xlink" width="761.1" height="451.32" viewBox="0 0 761.1 451.32">
  <defs>
    <style>
      .cls-1 {
        fill: none;
      }

      .cls-2 {
        fill: #fff;
      }

      .cls-3 {
        fill: #007eb1;
      }

      .cls-4 {
        opacity: 0;
      }

      .cls-5 {
        fill: #107054;
      }

      .cls-6 {
        fill: #8cc440;
      }

      .cls-7 {
        clip-path: url(#clip-path);
      }

      .cls-8 {
        fill: #eaeaea;
      }

      .cls-9 {
        fill: #1c3747;
      }
    </style>
    <clipPath id="clip-path" transform="translate(-309.42 -153.24)">
      <rect class="cls-1" x="814.11" y="215.35" width="131.24" height="131.24"/>
    </clipPath>
  </defs>
  <g>
    <polygon class="cls-2" points="570.31 451.32 379.51 319.65 570.31 187.98 761.11 319.65 570.31 451.32"/>
    <path class="cls-3" d="M879.73,353.2l173.45,119.69L879.73,592.59,706.28,472.89,879.73,353.2m0-12L688.93,472.89l190.8,131.67,190.8-131.67L879.73,341.22Z" transform="translate(-309.42 -153.24)"/>
  </g>
  <g>
    <polygon class="cls-2" points="570.31 357.19 379.51 225.52 570.31 93.85 761.11 225.52 570.31 357.19"/>
    <path class="cls-3" d="M879.73,259.07l173.45,119.7L879.73,498.46,706.28,378.77l173.45-119.7m0-12L688.93,378.77l190.8,131.67,190.8-131.67L879.73,247.1Z" transform="translate(-309.42 -153.24)"/>
  </g>
  <g>
    <polygon class="cls-2" points="570.31 263.34 379.51 131.67 570.31 0 761.11 131.67 570.31 263.34"/>
    <path class="cls-3" d="M879.73,165.22l173.45,119.69L879.73,404.61,706.28,284.91,879.73,165.22m0-12L688.93,284.91l190.8,131.67,190.8-131.67L879.73,153.24Z" transform="translate(-309.42 -153.24)"/>
  </g>
  <path class="cls-3" d="M478.77,527.72H386.31a77,77,0,0,1-76.89-76.88V358.38a77,77,0,0,1,76.89-76.89h92.46a77,77,0,0,1,76.88,76.89v92.46A77,77,0,0,1,478.77,527.72Zm-92.46-211.5a42.21,42.21,0,0,0-42.17,42.16v92.46A42.21,42.21,0,0,0,386.31,493h92.46a42.2,42.2,0,0,0,42.16-42.16V358.38a42.2,42.2,0,0,0-42.16-42.16Z" transform="translate(-309.42 -153.24)"/>
  <path class="cls-3" d="M341.8,311c-.09-2.85.54-66.43,32.25-106,14.84-18.51,34.15-27.9,57.41-27.9,67.77,0,89.11,85.59,89.67,132.92l-35.72.53c0-.24,1.89-27.51-6.39-53.82-9.82-31.22-25.37-42.45-47.56-42.45-14.69,0-26.15,5.37-35,16.42-22.58,28-18.93,78.37-18.91,78.91Z" transform="translate(-309.42 -153.24)"/>
  <g id="pulse-check_circle-green">
    <g id="green-pulse-plus-anim" class="cls-4">
      <circle class="cls-5" cx="124.01" cy="251.37" r="79.13"/>
    </g>
    <g id="green-pulse-plus-bg">
      <circle class="cls-6" cx="124.01" cy="251.37" r="62.61"/>
    </g>
    <g id="green-pulse-plus-icon">
      <path id="icon-target-green-pulse-plus" class="cls-2" d="M389.43,409.38a4.54,4.54,0,0,1,0-6.4h0l6.4-6.41a4.55,4.55,0,0,1,6.41,0l19.85,19.83,42.52-42.52a4.55,4.55,0,0,1,6.41,0l6.41,6.41a4.55,4.55,0,0,1,0,6.41l-52.11,52.15a4.54,4.54,0,0,1-6.4,0h0Z" transform="translate(-309.42 -153.24)"/>
    </g>
  </g>
  <g id="Firewall_Flat" data-name="Firewall Flat">
    <g class="cls-7">
      <g class="cls-7">
        <path class="cls-8" d="M879.74,345.4a64.43,64.43,0,1,1,45.55-18.87,64,64,0,0,1-45.55,18.87" transform="translate(-309.42 -153.24)"/>
        <path class="cls-3" d="M879.74,217.71a63.05,63.05,0,1,1-24.63,5,62.79,62.79,0,0,1,24.63-5m0-2.3A65.57,65.57,0,1,0,945.31,281a65.57,65.57,0,0,0-65.57-65.57" transform="translate(-309.42 -153.24)"/>
        <rect class="cls-9" x="526.9" y="99.46" width="29.18" height="16.92" rx="0.22"/>
        <path class="cls-8" d="M864.7,268.81H837.13V253.5H864.7Zm.58-16.92H836.55a1,1,0,0,0-1,1v16.47a1,1,0,0,0,1,1h28.73a1,1,0,0,0,1-1V252.92a1,1,0,0,0-1-1" transform="translate(-309.42 -153.24)"/>
        <rect class="cls-9" x="526.9" y="143.09" width="29.18" height="16.92" rx="0.22"/>
        <path class="cls-8" d="M864.7,312.45H837.13V297.14H864.7Zm.58-16.92H836.55a1,1,0,0,0-1,1V313a1,1,0,0,0,1,1h28.73a1,1,0,0,0,1-1V296.56a1,1,0,0,0-1-1" transform="translate(-309.42 -153.24)"/>
        <rect class="cls-9" x="560.33" y="99.46" width="29.18" height="16.92" rx="0.22"/>
        <path class="cls-8" d="M898.13,268.81H870.56V253.5h27.57Zm.58-16.92H870a1,1,0,0,0-1,1v16.47a1,1,0,0,0,1,1h28.73a1,1,0,0,0,1-1V252.92a1,1,0,0,0-1-1" transform="translate(-309.42 -153.24)"/>
        <rect class="cls-9" x="560.33" y="143.09" width="29.18" height="16.92" rx="0.22"/>
        <path class="cls-8" d="M898.13,312.45H870.56V297.14h27.57Zm.58-16.92H870a1,1,0,0,0-1,1V313a1,1,0,0,0,1,1h28.73a1,1,0,0,0,1-1V296.56a1,1,0,0,0-1-1" transform="translate(-309.42 -153.24)"/>
        <rect class="cls-9" x="526.9" y="120.73" width="62.61" height="18" rx="0.72"/>
        <path class="cls-8" d="M898.13,291.17h-61V274.78h61Zm.08-18H837.05a1.54,1.54,0,0,0-1.53,1.53v16.55a1.54,1.54,0,0,0,1.53,1.53h61.16a1.54,1.54,0,0,0,1.53-1.53V274.7a1.54,1.54,0,0,0-1.53-1.53" transform="translate(-309.42 -153.24)"/>
        <path class="cls-9" d="M897.31,316l-.37-.15c-.5-.21-12.45-5.33-15.63-16.18-1.87-6.4-.28-13.34,4.73-20.61l.05-.06,0-.06c12-14.7,12.29-17.09,13.47-27.15l.37-3.13,2.59,1.54a79.71,79.71,0,0,1,13,10.19c8.79,8.45,13.9,17.52,14.78,26.22,1,10.15-3.48,19.87-13.38,28.88l-.56.51Z" transform="translate(-309.42 -153.24)"/>
        <path class="cls-8" d="M901.57,251.89s49.8,29.68,14.11,62.17h-18s-25.91-10.87-10.05-33.88c12.43-15.2,12.69-17.84,13.92-28.29m-3.18-6.44-.7,6,0,.13c-.59,5-.92,7.81-2.43,11.1s-4.54,7.61-10.61,15l-.11.12-.09.13c-5.36,7.78-7,15.27-5,22.27,3.43,11.73,16.21,17.21,16.75,17.43l.72.31h20.28l1.12-1c10.39-9.45,15.1-19.72,14-30.52a36.61,36.61,0,0,0-5.62-15.62A61.31,61.31,0,0,0,917,259a82,82,0,0,0-13.37-10.46Z" transform="translate(-309.42 -153.24)"/>
        <path class="cls-8" d="M906.68,290.31s19,11.34,5.39,23.75H905.2s-9.9-4.16-3.84-12.94c4.75-5.81,4.85-6.82,5.32-10.81" transform="translate(-309.42 -153.24)"/>
      </g>
    </g>
  </g>
</svg>
